<mxfile host="65bd71144e">
    <diagram id="FA-GvEGQzi0LgUIA_ooQ" name="페이지-1">
        <mxGraphModel dx="873" dy="782" grid="1" gridSize="10" guides="1" tooltips="1" connect="1" arrows="1" fold="1" page="1" pageScale="1" pageWidth="827" pageHeight="1169" math="0" shadow="0">
            <root>
                <mxCell id="0"/>
                <mxCell id="1" parent="0"/>
                <mxCell id="8" value="" style="edgeStyle=none;html=1;" edge="1" parent="1" source="2" target="7">
                    <mxGeometry relative="1" as="geometry"/>
                </mxCell>
                <mxCell id="2" value="시작" style="ellipse;whiteSpace=wrap;html=1;aspect=fixed;" vertex="1" parent="1">
                    <mxGeometry x="160" y="40" width="80" height="80" as="geometry"/>
                </mxCell>
                <mxCell id="20" value="" style="edgeStyle=none;html=1;" edge="1" parent="1" source="5">
                    <mxGeometry relative="1" as="geometry">
                        <mxPoint x="200" y="360" as="targetPoint"/>
                    </mxGeometry>
                </mxCell>
                <mxCell id="5" value="숫자를 1초마다 하나씩 차례로 보여준다." style="ellipse;whiteSpace=wrap;html=1;" vertex="1" parent="1">
                    <mxGeometry x="140" y="260" width="120" height="60" as="geometry"/>
                </mxCell>
                <mxCell id="9" value="" style="edgeStyle=none;html=1;" edge="1" parent="1" source="7" target="5">
                    <mxGeometry relative="1" as="geometry"/>
                </mxCell>
                <mxCell id="7" value="&lt;span&gt;1~45까지 7가지 숫자를 겹치지 않게 준비&lt;/span&gt;" style="ellipse;whiteSpace=wrap;html=1;" vertex="1" parent="1">
                    <mxGeometry x="140" y="160" width="120" height="60" as="geometry"/>
                </mxCell>
                <mxCell id="13" value="" style="edgeStyle=none;html=1;" edge="1" parent="1" source="10">
                    <mxGeometry relative="1" as="geometry">
                        <mxPoint x="200" y="460" as="targetPoint"/>
                    </mxGeometry>
                </mxCell>
                <mxCell id="10" value="마지막 번호는 보너스 번호" style="ellipse;whiteSpace=wrap;html=1;" vertex="1" parent="1">
                    <mxGeometry x="140" y="360" width="120" height="60" as="geometry"/>
                </mxCell>
                <mxCell id="14" value="끝" style="ellipse;whiteSpace=wrap;html=1;aspect=fixed;" vertex="1" parent="1">
                    <mxGeometry x="761" y="230" width="80" height="80" as="geometry"/>
                </mxCell>
                <mxCell id="43" style="edgeStyle=none;html=1;entryX=0;entryY=0.5;entryDx=0;entryDy=0;" edge="1" parent="1" source="17" target="40">
                    <mxGeometry relative="1" as="geometry"/>
                </mxCell>
                <mxCell id="17" value="1,2개&amp;nbsp;" style="ellipse;whiteSpace=wrap;html=1;" vertex="1" parent="1">
                    <mxGeometry x="481" y="40" width="90" height="60" as="geometry"/>
                </mxCell>
                <mxCell id="21" value="낮은 숫자부터" style="text;html=1;strokeColor=none;fillColor=none;align=center;verticalAlign=middle;whiteSpace=wrap;rounded=0;" vertex="1" parent="1">
                    <mxGeometry x="50" y="260" width="90" height="50" as="geometry"/>
                </mxCell>
                <mxCell id="25" value="등수 체크" style="rounded=1;whiteSpace=wrap;html=1;" vertex="1" parent="1">
                    <mxGeometry x="140" y="460" width="120" height="60" as="geometry"/>
                </mxCell>
                <mxCell id="34" style="edgeStyle=none;html=1;entryX=0;entryY=0.5;entryDx=0;entryDy=0;" edge="1" parent="1" source="26" target="17">
                    <mxGeometry relative="1" as="geometry"/>
                </mxCell>
                <mxCell id="35" style="edgeStyle=none;html=1;entryX=0;entryY=0.5;entryDx=0;entryDy=0;" edge="1" parent="1" source="26" target="28">
                    <mxGeometry relative="1" as="geometry"/>
                </mxCell>
                <mxCell id="36" style="edgeStyle=none;html=1;entryX=0;entryY=0.5;entryDx=0;entryDy=0;" edge="1" parent="1" source="26" target="30">
                    <mxGeometry relative="1" as="geometry"/>
                </mxCell>
                <mxCell id="37" style="edgeStyle=none;html=1;entryX=0;entryY=0.5;entryDx=0;entryDy=0;" edge="1" parent="1" source="26" target="31">
                    <mxGeometry relative="1" as="geometry"/>
                </mxCell>
                <mxCell id="38" style="edgeStyle=none;html=1;entryX=0;entryY=0.5;entryDx=0;entryDy=0;" edge="1" parent="1" source="26" target="32">
                    <mxGeometry relative="1" as="geometry"/>
                </mxCell>
                <mxCell id="39" style="edgeStyle=none;html=1;entryX=0;entryY=0.5;entryDx=0;entryDy=0;" edge="1" parent="1" source="26" target="33">
                    <mxGeometry relative="1" as="geometry"/>
                </mxCell>
                <mxCell id="26" value="등수 체크" style="rounded=1;whiteSpace=wrap;html=1;" vertex="1" parent="1">
                    <mxGeometry x="321" y="240" width="120" height="60" as="geometry"/>
                </mxCell>
                <mxCell id="42" style="edgeStyle=none;html=1;entryX=0;entryY=0.5;entryDx=0;entryDy=0;" edge="1" parent="1" source="28" target="40">
                    <mxGeometry relative="1" as="geometry"/>
                </mxCell>
                <mxCell id="28" value="3개" style="ellipse;whiteSpace=wrap;html=1;" vertex="1" parent="1">
                    <mxGeometry x="481" y="120" width="90" height="60" as="geometry"/>
                </mxCell>
                <mxCell id="44" style="edgeStyle=none;html=1;" edge="1" parent="1" source="30">
                    <mxGeometry relative="1" as="geometry">
                        <mxPoint x="611" y="270" as="targetPoint"/>
                    </mxGeometry>
                </mxCell>
                <mxCell id="30" value="4개" style="ellipse;whiteSpace=wrap;html=1;" vertex="1" parent="1">
                    <mxGeometry x="481" y="200" width="90" height="60" as="geometry"/>
                </mxCell>
                <mxCell id="45" style="edgeStyle=none;html=1;entryX=0;entryY=0.5;entryDx=0;entryDy=0;" edge="1" parent="1" source="31" target="40">
                    <mxGeometry relative="1" as="geometry"/>
                </mxCell>
                <mxCell id="31" value="5개" style="ellipse;whiteSpace=wrap;html=1;" vertex="1" parent="1">
                    <mxGeometry x="481" y="280" width="90" height="60" as="geometry"/>
                </mxCell>
                <mxCell id="46" style="edgeStyle=none;html=1;entryX=0;entryY=0.5;entryDx=0;entryDy=0;" edge="1" parent="1" source="32" target="40">
                    <mxGeometry relative="1" as="geometry"/>
                </mxCell>
                <mxCell id="32" value="5개 + 보너스" style="ellipse;whiteSpace=wrap;html=1;" vertex="1" parent="1">
                    <mxGeometry x="481" y="360" width="90" height="60" as="geometry"/>
                </mxCell>
                <mxCell id="47" style="edgeStyle=none;html=1;entryX=0;entryY=0.5;entryDx=0;entryDy=0;" edge="1" parent="1" source="33" target="40">
                    <mxGeometry relative="1" as="geometry"/>
                </mxCell>
                <mxCell id="33" value="6개" style="ellipse;whiteSpace=wrap;html=1;" vertex="1" parent="1">
                    <mxGeometry x="481" y="440" width="90" height="60" as="geometry"/>
                </mxCell>
                <mxCell id="48" value="" style="edgeStyle=none;html=1;" edge="1" parent="1" source="40" target="14">
                    <mxGeometry relative="1" as="geometry"/>
                </mxCell>
                <mxCell id="40" value="순위 표시" style="ellipse;whiteSpace=wrap;html=1;" vertex="1" parent="1">
                    <mxGeometry x="611" y="240" width="120" height="60" as="geometry"/>
                </mxCell>
            </root>
        </mxGraphModel>
    </diagram>
</mxfile>